<svg width="16" height="16" xmlns="http://www.w3.org/2000/svg" xmlns:xlink="http://www.w3.org/1999/xlink" xml:space="preserve" overflow="hidden"><defs><clipPath id="clip0"><rect x="0" y="0" width="16" height="16"/></clipPath></defs><g clip-path="url(#clip0)"><path d="M0 4C-4.44089e-16 2.89543 0.895431 2 2 2L14 2C15.1046 2 16 2.89543 16 4L16 12C16 13.1046 15.1046 14 14 14L2 14C0.895431 14 -2.22045e-16 13.1046 -2.22045e-16 12ZM2 3C1.44772 3 1 3.44772 1 4L1 4.217 8 8.417 15 4.217 15 4C15 3.44772 14.5523 3 14 3ZM15 5.383 10.292 8.208 15 11.105ZM14.966 12.259 9.326 8.788 8 9.583 6.674 8.788 1.034 12.258C1.15084 12.6955 1.54713 12.9999 2 13L14 13C14.4526 13.0001 14.8488 12.6961 14.966 12.259M1 11.105 5.708 8.208 1 5.383Z" fill="#F2F2F2"/></g></svg>